# xmcd CD database file
#
# Track frame offsets:
#	150
#	15042
#	33010
#	60407
#	77857
#	99897
#	126952
#	142030
#	159402
#	174885
#	191440
#	211597
#	232675
#	253867
#
# Disc length: 3647 seconds
#
# Revision: 0
# Processed by: cddbd v1.5.1PL2 Copyright (c) Steve Scherf et al.
# Submitted via: CDex 1.51
#
DISCID=9a0e3d0e
DTITLE=Various Artist - DA Music New instrumental Sampler
DYEAR=1900
DGENRE=New Age
TTITLE0=Coral Beach/Obo and Jorge
TTITLE1=Red Earth/Frank Fisher
TTITLE2=Ocean Blvd/Lisa Franco
TTITLE3=Modesty Blaze/Software
TTITLE4=Road/Hiroko Okano
TTITLE5=Cry Nature/Dancing Fantansy
TTITLE6=Mektoub Part II/Khalil Chahine
TTITLE7=Al and Diana/Megabyte
TTITLE8=Dancing on a summernight with You/Dancing Fantasy
TTITLE9=Love in Your Eyes/Carol Albert
TTITLE10=Franck(It's so Heavy!)/Jean-Michel Kajdan
TTITLE11=Fly Away/Windows
TTITLE12=The Long Way to Acapulco/Rainer Bloss
TTITLE13=Silent Leaves/Peter Seiler
EXTD=
EXTT0=
EXTT1=
EXTT2=
EXTT3=
EXTT4=
EXTT5=
EXTT6=
EXTT7=
EXTT8=
EXTT9=
EXTT10=
EXTT11=
EXTT12=
EXTT13=
PLAYORDER=
